<svg width="512" height="512" viewBox="0 0 512 512" fill="none" xmlns="http://www.w3.org/2000/svg">
  <!-- Background -->
  <rect width="512" height="512" rx="86" fill="#d32f2f"/>

  <!-- Wrench -->
  <g transform="translate(110, 110)">
    <!-- Wrench head -->
    <path d="M225 65 L255 95 L225 125 L195 95 Z" fill="#ffb300" stroke="#1a1a1a" stroke-width="6"/>
    <circle cx="210" cy="95" r="22" fill="none" stroke="#1a1a1a" stroke-width="6"/>

    <!-- Wrench handle -->
    <rect x="50" y="80" width="165" height="30" rx="15" fill="#ffb300" stroke="#1a1a1a" stroke-width="6"/>

    <!-- Grip lines -->
    <line x1="75" y1="80" x2="75" y2="110" stroke="#1a1a1a" stroke-width="4"/>
    <line x1="100" y1="80" x2="100" y2="110" stroke="#1a1a1a" stroke-width="4"/>
    <line x1="125" y1="80" x2="125" y2="110" stroke="#1a1a1a" stroke-width="4"/>
    <line x1="150" y1="80" x2="150" y2="110" stroke="#1a1a1a" stroke-width="4"/>
    <line x1="175" y1="80" x2="175" y2="110" stroke="#1a1a1a" stroke-width="4"/>
  </g>

  <!-- Gear -->
  <g transform="translate(250, 250)">
    <circle cx="40" cy="40" r="55" fill="#ffb300"/>
    <circle cx="40" cy="40" r="28" fill="#1a1a1a"/>

    <!-- Gear teeth -->
    <circle cx="40" cy="-15" r="8" fill="#ffb300"/>
    <circle cx="40" cy="95" r="8" fill="#ffb300"/>
    <circle cx="-15" cy="40" r="8" fill="#ffb300"/>
    <circle cx="95" cy="40" r="8" fill="#ffb300"/>
    <circle cx="79" cy="1" r="8" fill="#ffb300"/>
    <circle cx="1" cy="1" r="8" fill="#ffb300"/>
    <circle cx="79" cy="79" r="8" fill="#ffb300"/>
    <circle cx="1" cy="79" r="8" fill="#ffb300"/>
  </g>

  <!-- Border accent -->
  <rect x="10" y="10" width="492" height="492" rx="76" fill="none" stroke="#ffb300" stroke-width="8"/>
</svg>
